<svg width="618" height="232" viewBox="0 0 618 232" fill="none" xmlns="http://www.w3.org/2000/svg">
<path d="M280.357 101.102C295.519 101.102 303.898 93.0218 308.686 84.7426L296.517 78.8573C293.724 84.3436 287.739 88.5331 280.357 88.5331C268.786 88.5331 260.008 79.2563 260.008 66.6878C260.008 54.1193 268.786 44.8425 280.357 44.8425C287.739 44.8425 293.724 49.1318 296.517 54.5183L308.686 48.5333C303.998 40.254 295.519 32.274 280.357 32.274C260.906 32.274 245.445 46.239 245.445 66.6878C245.445 87.1366 260.906 101.102 280.357 101.102Z" fill="#181E4B"/>
<path d="M345.746 99.9046H358.414V68.7825C358.414 54.9173 348.339 50.5283 337.367 50.5283C329.786 50.5283 322.205 52.9223 316.32 58.1093L321.108 66.588C325.197 62.7975 329.985 60.9023 335.172 60.9023C341.556 60.9023 345.746 64.0943 345.746 68.982V75.6653C342.554 71.775 336.868 69.78 330.484 69.78C322.803 69.78 313.726 73.8698 313.726 85.1416C313.726 95.9146 322.803 101.102 330.484 101.102C336.768 101.102 342.454 98.8073 345.746 94.9171V99.9046ZM345.746 88.3336C343.651 91.1266 339.661 92.5231 335.571 92.5231C330.584 92.5231 326.494 89.9296 326.494 85.4408C326.494 80.7526 330.584 78.1591 335.571 78.1591C339.661 78.1591 343.651 79.5556 345.746 82.3486V88.3336Z" fill="#181E4B"/>
<path d="M403.498 99.9046H416.166V65.8898C416.166 56.5133 411.079 50.5283 400.506 50.5283C392.625 50.5283 386.74 54.3188 383.648 58.0095V51.7253H370.98V99.9046H383.648V67.4858C385.743 64.593 389.633 61.8 394.62 61.8C400.007 61.8 403.498 64.0943 403.498 70.7775V99.9046Z" fill="#181E4B"/>
<path d="M444.904 101.102C450.191 101.102 453.583 99.7051 455.478 98.0093L452.785 88.4333C452.086 89.1316 450.291 89.8298 448.396 89.8298C445.603 89.8298 444.007 87.5356 444.007 84.5431V62.7975H453.782V51.7253H444.007V38.5583H431.239V51.7253H423.259V62.7975H431.239V87.9346C431.239 96.5131 436.027 101.102 444.904 101.102Z" fill="#181E4B"/>
<path d="M459.357 75.7651C459.357 91.2263 470.43 101.102 485.093 101.102C492.574 101.102 500.155 98.8073 504.943 94.4183L499.357 86.2388C496.265 89.2313 490.978 91.0268 486.489 91.0268C478.31 91.0268 473.422 85.9396 472.624 79.8548H508.434V77.0618C508.434 61.3013 498.659 50.5283 484.295 50.5283C469.632 50.5283 459.357 61.8 459.357 75.7651ZM484.295 60.603C492.674 60.603 495.866 66.6878 496.165 71.2763H472.425C473.023 66.4883 476.415 60.603 484.295 60.603Z" fill="#181E4B"/>
<path d="M514.493 75.7651C514.493 91.2263 525.565 101.102 540.228 101.102C547.709 101.102 555.29 98.8073 560.078 94.4183L554.492 86.2388C551.4 89.2313 546.113 91.0268 541.625 91.0268C533.445 91.0268 528.557 85.9396 527.759 79.8548H563.57V77.0618C563.57 61.3013 553.794 50.5283 539.43 50.5283C524.767 50.5283 514.493 61.8 514.493 75.7651ZM539.43 60.603C547.809 60.603 551.001 66.6878 551.3 71.2763H527.56C528.158 66.4883 531.55 60.603 539.43 60.603Z" fill="#181E4B"/>
<path d="M605.239 99.9046H617.907V65.8898C617.907 56.5133 612.82 50.5283 602.246 50.5283C594.366 50.5283 588.481 54.3188 585.388 58.0095V51.7253H572.72V99.9046H585.388V67.4858C587.483 64.593 591.373 61.8 596.361 61.8C601.747 61.8 605.239 64.0943 605.239 70.7775V99.9046Z" fill="#181E4B"/>
<path d="M294.223 199.655H308.487V133.121H294.223V159.256H262.801V133.121H248.637V199.655H262.801V171.725H294.223V199.655Z" fill="#181E4B"/>
<path d="M353.818 199.655H366.486V151.475H353.818V184.094C351.623 186.887 347.733 189.58 342.845 189.58C337.459 189.58 333.968 187.385 333.968 180.702V151.475H321.299V185.69C321.299 195.066 326.287 200.852 336.86 200.852C344.741 200.852 350.526 197.261 353.818 193.57V199.655Z" fill="#181E4B"/>
<path d="M379.065 199.655H391.733V193.47C395.523 198.258 400.81 200.852 406.596 200.852C418.765 200.852 427.942 191.675 427.942 175.615C427.942 159.854 418.865 150.278 406.596 150.278C400.91 150.278 395.523 152.772 391.733 157.66V133.121H379.065V199.655ZM391.733 184.193V167.136C393.828 163.944 398.516 161.55 402.606 161.55C409.987 161.55 414.875 167.236 414.875 175.615C414.875 183.994 409.987 189.58 402.606 189.58C398.516 189.58 393.828 187.286 391.733 184.193Z" fill="#181E4B"/>
<path d="M130.563 24.1996C130.563 24.1996 116.081 39.0195 116.081 67.8144Z" fill="white"/>
<path d="M130.563 24.1996C130.563 24.1996 116.081 39.0195 116.081 67.8144" stroke="#181E4B" stroke-width="10" stroke-miterlimit="10"/>
<path d="M30.5655 125.255C21.5626 76.6534 57.5695 28.0471 116.081 67.8146C174.593 28.0471 210.6 76.6534 201.597 125.25C192.599 173.856 143.085 219.484 116.081 187.112C89.0774 219.484 39.5636 173.856 30.5655 125.255Z" fill="#FC345C"/>
<path d="M156.544 62.8182C145.972 62.8182 134.184 67.1869 121.507 75.7989L116.081 79.4869V172.041L123.496 180.928C127.648 185.91 132.364 188.333 137.906 188.333C157.017 188.333 185.455 159.413 192.102 123.493C195.5 105.159 191.576 86.5155 181.863 74.8334C175.322 66.9745 166.565 62.8182 156.544 62.8182Z" fill="#EAFFF7"/>
<path d="M152.286 126.573C152.286 131.902 147.966 136.227 142.632 136.227C137.302 136.227 132.977 131.902 132.977 126.573C132.977 121.238 142.632 110.092 142.632 110.092C142.632 110.092 152.286 121.243 152.286 126.573Z" fill="#181E4B"/>
</svg>
